<svg width="1440" height="1024" viewBox="0 0 1440 1024" fill="none" xmlns="http://www.w3.org/2000/svg">
<path opacity="0.3" fill-rule="evenodd" clip-rule="evenodd" d="M1278.56 1251.58C1259.8 1289.77 1220.44 1296.35 1187.76 1312.23C1157.36 1327 1127.75 1341.96 1095.29 1340.63C1057.07 1339.06 1009.95 1343.7 986.993 1303.99C963.872 1264 991.217 1207.71 989.584 1157.78C988.115 1112.59 958.402 1063.68 977.96 1026.27C997.725 988.46 1044.35 1006.68 1077.19 990.192C1107.47 974.985 1129.44 929.894 1161.77 933.983C1194.58 938.123 1216.71 978.008 1238.18 1010.5C1259.12 1042.22 1276.39 1077.06 1283.22 1117.88C1290.72 1162.57 1297.49 1213.03 1278.56 1251.58Z" stroke="#18A0FB" stroke-width="0.5"/>
<path opacity="0.3" fill-rule="evenodd" clip-rule="evenodd" d="M1374.23 1311.14C1343.93 1372.83 1280.52 1383.58 1227.85 1409.32C1178.83 1433.26 1131.11 1457.49 1078.82 1455.45C1017.26 1453.05 941.32 1460.7 904.421 1396.69C867.257 1332.22 911.413 1241.28 908.898 1160.69C906.622 1087.77 858.85 1008.93 890.429 948.485C922.346 887.398 997.425 916.654 1050.36 889.929C1099.18 865.29 1134.65 792.456 1186.72 798.933C1239.57 805.509 1275.15 869.808 1309.66 922.182C1343.35 973.305 1371.09 1029.48 1382.02 1095.31C1393.99 1167.45 1404.81 1248.86 1374.23 1311.14Z" stroke="#18A0FB" stroke-width="0.5"/>
<path opacity="0.3" fill-rule="evenodd" clip-rule="evenodd" d="M1466.91 1368.84C1425.45 1453.29 1338.72 1468.09 1266.67 1503.36C1199.63 1536.2 1134.35 1569.43 1062.85 1566.69C978.673 1563.48 874.832 1574.04 824.425 1486.49C773.652 1398.31 834.099 1273.8 830.716 1163.52C827.657 1063.73 762.39 955.9 805.617 873.141C849.305 789.503 951.948 829.44 1024.35 792.811C1091.12 759.031 1139.68 659.314 1210.88 668.115C1283.15 677.049 1331.75 764.998 1378.91 836.631C1424.93 906.551 1462.82 983.386 1477.72 1073.48C1494.04 1172.17 1508.77 1283.57 1466.91 1368.84Z" stroke="#18A0FB" stroke-width="0.5"/>
<path opacity="0.3" fill-rule="evenodd" clip-rule="evenodd" d="M1550.62 1420.97C1499.07 1525.98 1391.28 1544.43 1301.74 1588.32C1218.42 1629.16 1137.3 1670.52 1048.44 1667.18C943.829 1663.22 814.783 1676.42 752.172 1567.6C689.108 1458 764.269 1303.17 760.105 1166.08C756.338 1042.01 675.269 907.998 729.011 805.086C783.328 701.081 910.871 750.667 1000.86 705.087C1083.84 663.054 1144.22 539.058 1232.69 549.956C1322.51 561.008 1382.87 670.329 1441.45 759.358C1498.63 846.254 1545.68 941.755 1564.17 1053.76C1584.4 1176.43 1602.68 1314.92 1550.62 1420.97Z" stroke="#18A0FB" stroke-width="0.5"/>
<path opacity="0.3" fill-rule="evenodd" clip-rule="evenodd" d="M1628.35 1469.36C1567.43 1593.45 1440.1 1615.29 1334.31 1667.2C1235.87 1715.52 1140.01 1764.38 1035.05 1760.47C911.468 1755.84 759.024 1771.47 685.081 1642.9C610.605 1513.43 699.433 1330.45 694.539 1168.45C690.114 1021.85 594.374 863.516 657.888 741.891C722.07 618.966 872.738 677.522 979.052 623.624C1077.09 573.936 1148.44 427.381 1252.96 440.228C1359.05 453.268 1430.34 582.417 1499.53 687.597C1567.05 790.258 1622.62 903.091 1644.43 1035.43C1668.31 1180.39 1689.87 1344.03 1628.35 1469.36Z" stroke="#18A0FB" stroke-width="0.5"/>
<path opacity="0.3" fill-rule="evenodd" clip-rule="evenodd" d="M1709.07 1519.61C1638.42 1663.55 1490.78 1688.89 1368.12 1749.14C1253.98 1805.16 1142.84 1861.86 1021.14 1857.33C877.871 1852 701.117 1870.2 615.408 1721.13C529.08 1570.98 632.09 1358.77 626.447 1170.91C621.34 1000.91 510.362 817.325 584.021 676.266C658.464 533.707 833.131 601.564 956.4 539.038C1070.08 481.38 1152.83 311.423 1274.01 326.285C1397 341.385 1479.64 491.134 1559.83 613.086C1638.09 732.129 1702.51 862.949 1727.77 1016.41C1755.45 1184.5 1780.42 1374.26 1709.07 1519.61Z" stroke="#18A0FB" stroke-width="0.5"/>
<path opacity="0.3" fill-rule="evenodd" clip-rule="evenodd" d="M1807.73 1581.03C1725.19 1749.21 1552.74 1778.87 1409.45 1849.24C1276.12 1914.74 1146.3 1981.01 1004.15 1975.76C836.804 1969.57 630.345 1990.85 530.256 1816.71C429.44 1641.32 549.789 1393.39 543.227 1173.92C537.286 975.314 407.688 760.871 493.744 596.058C580.714 429.496 784.725 508.733 928.718 435.653C1061.51 368.264 1158.19 169.69 1299.73 187.032C1443.39 204.629 1539.89 379.571 1633.54 522.014C1724.94 661.059 1800.16 813.884 1829.65 993.166C1861.95 1189.53 1891.09 1411.2 1807.73 1581.03Z" stroke="#18A0FB" stroke-width="0.5"/>
<path opacity="0.3" fill-rule="evenodd" clip-rule="evenodd" d="M1915.36 1648.03C1819.84 1842.64 1620.32 1877 1454.54 1958.47C1300.28 2034.27 1150.07 2111 985.614 2104.95C792 2097.8 553.136 2122.47 437.357 1921C320.74 1718.08 460.008 1431.16 452.438 1177.2C445.587 947.398 295.671 699.284 395.255 508.558C495.895 315.809 731.91 407.449 898.516 322.867C1052.15 244.865 1164.03 15.0701 1327.78 35.1108C1493.99 55.4517 1605.62 257.843 1713.95 422.658C1819.68 583.532 1906.69 760.358 1940.77 967.801C1978.13 1195.01 2011.82 1451.5 1915.36 1648.03Z" stroke="#18A0FB" stroke-width="0.5"/>
<path opacity="0.3" fill-rule="evenodd" clip-rule="evenodd" d="M2020 1713.16C1911.85 1933.5 1686.02 1972.42 1498.38 2064.65C1323.77 2150.49 1153.75 2237.37 967.591 2230.54C748.442 2222.49 478.073 2250.41 347.042 2022.39C215.06 1792.69 372.721 1467.87 364.172 1180.4C356.438 920.251 186.774 639.405 299.501 423.49C413.432 205.281 680.572 308.986 869.154 213.213C1043.06 124.893 1169.71 -135.252 1355.06 -112.59C1543.19 -89.5859 1669.52 139.507 1792.12 326.058C1911.78 508.155 2010.25 708.311 2048.83 943.133C2091.09 1200.34 2129.2 1490.68 2020 1713.16Z" stroke="#18A0FB" stroke-width="0.5"/>
<path opacity="0.3" fill-rule="evenodd" clip-rule="evenodd" d="M2115.67 1772.74C1996 2016.57 1746.1 2059.66 1538.45 2161.75C1345.23 2256.75 1157.09 2352.92 951.115 2345.36C708.619 2336.48 409.445 2367.41 264.466 2115.09C118.438 1860.91 292.914 1501.45 283.474 1183.32C274.931 895.433 87.2026 584.661 211.959 345.713C338.038 104.226 633.632 218.963 842.308 112.957C1034.75 15.2024 1174.91 -272.693 1380 -247.632C1588.17 -222.195 1727.95 31.312 1863.59 237.751C1996 439.252 2104.95 660.737 2147.63 920.595C2194.36 1205.21 2236.51 1526.52 2115.67 1772.74Z" stroke="#18A0FB" stroke-width="0.5"/>
<path opacity="0.3" fill-rule="evenodd" clip-rule="evenodd" d="M2217.32 1836.01C2085.4 2104.82 1809.94 2152.33 1581.04 2264.9C1368.05 2369.66 1160.67 2475.66 933.608 2467.35C666.316 2457.6 336.529 2491.73 176.734 2213.56C15.7806 1933.39 208.121 1537.11 197.732 1186.42C188.328 869.072 -18.5866 526.511 118.944 263.081C257.934 -3.13804 583.765 123.319 813.783 6.44499C1025.92 -101.341 1180.43 -418.72 1406.5 -391.112C1635.96 -363.088 1790.03 -83.6369 1939.54 143.917C2085.47 366.035 2205.56 610.177 2252.58 896.642C2304.09 1210.39 2350.54 1564.59 2217.32 1836.01Z" stroke="#18A0FB" stroke-width="0.5"/>
<path opacity="0.3" fill-rule="evenodd" clip-rule="evenodd" d="M2327.94 1904.87C2182.68 2200.85 1879.4 2253.21 1627.38 2377.17C1392.88 2492.51 1164.53 2609.25 914.556 2600.14C620.262 2589.4 257.176 2627 81.256 2320.75C-95.9418 2012.27 115.846 1575.93 104.421 1189.79C94.0845 840.368 -133.711 463.185 17.7199 173.142C170.76 -119.989 529.483 19.2218 782.748 -109.482C1016.3 -228.168 1186.43 -577.635 1435.34 -547.253C1687.97 -516.415 1857.58 -208.741 2022.18 41.8037C2182.85 286.36 2315.04 555.172 2366.81 870.574C2423.5 1216.03 2474.62 1606.03 2327.94 1904.87Z" stroke="#18A0FB" stroke-width="0.5"/>
</svg>
